<svg xmlns="http://www.w3.org/2000/svg" viewBox="318.273 133 439.455 636.5" >
                <path d="M408.814 752.006c.154 1.36 1.476 2.258 3.285 2.258 1.73 0 2.98-.897 2.98-2.126 0-1.064-.75-1.7-2.54-2.142l-1.78-.428c-2.53-.618-3.7-1.803-3.7-3.714 0-2.37 2.06-4.01 5-4.01 2.9 0 4.89 1.622 4.96 3.992h-2.09c-.13-1.372-1.26-2.2-2.92-2.2s-2.79.84-2.79 2.052c0 .97.72 1.543 2.49 1.98l1.51.366c2.82.666 3.98 1.8 3.98 3.8 0 2.576-2.06 4.18-5.31 4.18-3.05 0-5.11-1.57-5.25-4.054h2.1l.03.03v.016zm20.873 3.828h-2.134l-2.194-7.79h-.05l-2.18 7.79h-2.12l-2.86-10.342h2.06l1.92 8.194h.04l2.19-8.19h1.98l2.2 8.2h.04l1.92-8.18h2.01l-2.85 10.34v-.022zm4.056-15.277c0-.675.542-1.188 1.21-1.188s1.21.51 1.21 1.19c0 .66-.543 1.19-1.21 1.19-.67 0-1.21-.53-1.21-1.19v-.02zm.17 4.935h2.067v10.344h-2.067v-10.344zm4.875 1.634h-1.427v-1.63h1.43v-.946c0-1.933.88-2.777 2.97-2.777.38 0 .72.04 1.05.097v1.57c-.2-.045-.49-.073-.76-.073-.85 0-1.19.374-1.21 1.26v.89h2v1.633h-1.97v8.708h-2.07v-8.715l-.01.007.02-.024zm8.41-3.953v2.324h1.98v1.635h-1.98v5.777c0 .89.398 1.31 1.257 1.31.215 0 .57-.03.705-.05v1.63c-.235.05-.715.1-1.166.1-2.07 0-2.87-.79-2.87-2.79v-5.99h-1.428v-1.62h1.435v-2.32h2.08l-.01-.02zm18.9 9.146c.03 1.14.857 1.92 2.047 1.92 1.4 0 2.162-.84 2.162-2.41v-9.73h2.133v9.74c0 2.73-1.6 4.3-4.276 4.3-2.476 0-4.162-1.54-4.162-3.84h2.096v-.01zm12.53-6.95c2.27 0 3.905 1.27 3.954 3.08h-1.942c-.085-.92-.876-1.49-2.058-1.49-1.17 0-1.95.54-1.95 1.36 0 .62.512 1.05 1.607 1.32l1.71.4c2.08.5 2.85 1.26 2.85 2.78 0 1.85-1.75 3.12-4.26 3.12-2.41 0-4.06-1.25-4.22-3.12h2.03c.16.99.96 1.53 2.27 1.53 1.29 0 2.09-.53 2.09-1.37 0-.67-.41-1-1.5-1.28l-1.85-.46c-1.86-.46-2.79-1.42-2.79-2.84 0-1.82 1.63-3.07 4.01-3.07l-.02.01.02-.01zm32.222 3.6c0 4.37-2.483 7.09-6.44 7.09-3.956 0-6.435-2.73-6.435-7.09s2.478-7.11 6.44-7.11c3.95 0 6.44 2.73 6.44 7.1l-.005-.01zm-10.692 0c0 3.2 1.648 5.22 4.256 5.22 2.606 0 4.242-2.02 4.242-5.22 0-3.21-1.646-5.23-4.252-5.23-2.605 0-4.26 2.02-4.26 5.23l.014-.01v-.01zm14.636 5.11h-.046v1.75h-1.99v-14.35h2.064v5.73h.038c.634-1.16 1.82-1.81 3.28-1.81 2.616 0 4.323 2.06 4.323 5.27 0 3.21-1.707 5.27-4.343 5.27-1.502 0-2.677-.67-3.32-1.85l-.006-.01v-.01zm.02-3.42c0 2.1 1.117 3.51 2.784 3.51 1.667 0 2.756-1.38 2.756-3.53s-1.094-3.53-2.756-3.53c-1.662 0-2.778 1.43-2.778 3.51l.006.02-.012-.01zm11.438 5.66c0 2.11-1.083 3.09-3.363 3.09-.09 0-.41 0-.46-.01v-1.65c.03 0 .25.01.29.01 1.06 0 1.45-.41 1.45-1.46v-10.83h2.07v10.85l-.01-.01zm-2.235-15.78c0-.68.544-1.2 1.214-1.2.67 0 1.21.51 1.21 1.18 0 .66-.54 1.19-1.21 1.19-.67 0-1.2-.53-1.2-1.2v.02zm13.27 12.24c-.296 1.85-2.11 3.14-4.436 3.14-3 0-4.86-2.02-4.86-5.25 0-3.24 1.89-5.34 4.78-5.34 2.84 0 4.64 1.97 4.64 5.1v.73h-7.32v.13c0 1.78 1.12 2.96 2.83 2.96 1.21 0 2.15-.57 2.43-1.48h1.98l-.01.02v-.02zm-7.207-3.09h5.25c-.046-1.61-1.066-2.68-2.57-2.68-1.484-.01-2.56 1.08-2.675 2.67v.01l-.005-.01zm15.837-.7c-.188-1.1-1.043-1.92-2.467-1.92-1.662 0-2.768 1.39-2.768 3.55 0 2.23 1.123 3.56 2.778 3.56 1.344 0 2.23-.67 2.478-1.87h1.973c-.23 2.16-1.97 3.6-4.45 3.6-2.93 0-4.86-2.03-4.86-5.3 0-3.22 1.92-5.3 4.85-5.3 2.64 0 4.28 1.68 4.46 3.67h-1.97v.02zm6.18-5.86v2.32h1.98v1.62h-1.98v5.77c0 .89.396 1.31 1.27 1.31.216 0 .574-.03.704-.05v1.62c-.22.05-.71.1-1.16.1-2.06 0-2.86-.79-2.86-2.79v-5.99h-1.42v-1.63h1.44v-2.31h2.07l-.02.01zm3.63-2.62c0-.68.543-1.2 1.207-1.2s1.208.51 1.208 1.18c0 .66-.54 1.2-1.214 1.2-.674 0-1.213-.53-1.213-1.19l.018.01h-.007zm.17 4.93h2.063v10.35h-2.064v-10.34zm9.316 10.34h-2.2l-3.73-10.35h2.187l2.637 8.3h.05l2.65-8.31h2.147l-3.72 10.34-.016.01h-.005zm13.513-3.04c-.296 1.85-2.116 3.15-4.435 3.15-2.99 0-4.86-2.02-4.86-5.26s1.89-5.35 4.78-5.35c2.84 0 4.64 1.97 4.64 5.1v.72h-7.32v.12c0 1.79 1.13 2.98 2.82 2.98 1.2 0 2.14-.58 2.43-1.49h1.96l.01.01v-.01zm-7.208-3.09h5.246c-.045-1.61-1.067-2.68-2.57-2.68-1.484-.01-2.562 1.08-2.676 2.67v.01-.01zm9.022 1.59v-1.86h6.237v1.86h-6.25.013zm8.12-2.36c0-4.36 2.46-7.09 6.3-7.09 3.112 0 5.464 1.91 5.828 4.77h-2.117c-.38-1.77-1.84-2.91-3.71-2.91-2.49 0-4.11 2.04-4.11 5.22 0 3.2 1.61 5.23 4.13 5.23 1.93 0 3.28-.98 3.71-2.64h2.13c-.52 2.84-2.66 4.51-5.83 4.51-3.85 0-6.29-2.73-6.29-7.11h-.01zm29.968 6.88h-2.134v-13.74h5.4c2.828 0 4.586 1.64 4.586 4.19 0 1.85-.986 3.36-2.665 3.92l3.09 5.61h-2.465l-2.802-5.3h-3.005v5.3l-.005.01zm0-7.01h3.067c1.65 0 2.603-.91 2.603-2.48 0-1.53-1.01-2.46-2.654-2.46h-3.01v4.94h-.006zm18.525 7.01h-1.975V754h-.032c-.596 1.224-1.646 1.88-3.227 1.88-2.26 0-3.64-1.458-3.64-3.83v-6.626h2.06v6.24c0 1.588.75 2.43 2.25 2.43 1.54 0 2.49-1.07 2.49-2.72v-5.95h2.06v10.36-.008zm4.24-1.76h-.05v1.75h-1.99V741.4h2.063v5.734h.04c.63-1.163 1.81-1.82 3.278-1.82 2.608 0 4.32 2.07 4.32 5.276 0 3.21-1.718 5.273-4.344 5.273-1.503 0-2.688-.664-3.322-1.86l.005.01v.026zm.02-3.42c0 2.11 1.115 3.52 2.775 3.52 1.663 0 2.75-1.38 2.75-3.53 0-2.14-1.082-3.52-2.742-3.52-1.662 0-2.78 1.43-2.78 3.52v.02l-.004-.01zm9.224 8.87v-1.67c.153.04.477.04.658.04.98 0 1.525-.41 1.878-1.51l.162-.53-3.752-10.37h2.217l2.658 8.45h.052l2.658-8.45h2.174l-3.88 10.81c-.885 2.48-1.864 3.28-3.98 3.28-.172 0-.676-.03-.84-.06v.02l-.005-.01zm-234.964-37.64c0 1.78 1.44 2.97 3.573 2.97 1.43 0 2.892-.56 3.714-1.44l-4.513-4.93c-.142.06-.43.22-.54.28-1.592.98-2.24 1.87-2.24 3.1l.013.01h-.007zm151.02-.14v-1.01l-3.136.21c-1.758.1-2.677.76-2.677 1.91 0 1.1.964 1.81 2.455 1.81 1.923 0 3.374-1.22 3.374-2.92h-.03zm-216.207 4.9v-12.64h-.08l-5.2 12.47h-1.984l-5.19-12.51h-.083v12.64h-2.43V709.4h3.07l5.55 13.56h.09l5.54-13.56h3.08v17.18h-2.43l.02-.01.02.025zm4.764-6.47c0-4.06 2.394-6.63 6.12-6.63s6.105 2.56 6.105 6.63c0 4.06-2.37 6.61-6.112 6.61-3.743 0-6.118-2.55-6.118-6.62l.01.01-.005-.01zm9.606 0c0-2.83-1.3-4.5-3.487-4.5-2.19 0-3.5 1.69-3.5 4.5 0 2.83 1.31 4.48 3.49 4.48 2.19 0 3.49-1.65 3.49-4.48zm7.342 4.27h-.056v2.19h-2.49v-17.94h2.58v7.17h.052c.788-1.45 2.263-2.28 4.094-2.28 3.272 0 5.41 2.59 5.41 6.6s-2.137 6.59-5.426 6.59c-1.88 0-3.352-.83-4.148-2.32l-.01-.01h-.006zm.023-4.28c0 2.63 1.4 4.4 3.48 4.4s3.44-1.73 3.44-4.41-1.36-4.41-3.44-4.41-3.47 1.78-3.47 4.4zm11.5-9.8c0-.85.69-1.49 1.52-1.49.84 0 1.52.64 1.52 1.49 0 .83-.68 1.49-1.51 1.49-.82 0-1.51-.66-1.51-1.47v-.02zm.22 3.33h2.59v12.93h-2.58v-12.93zm5.43-5.02h2.58v17.96h-2.58v-17.94zm16.38 14.16c-.37 2.32-2.64 3.94-5.54 3.94-3.75 0-6.08-2.52-6.08-6.57 0-4.04 2.36-6.68 5.98-6.68 3.55 0 5.79 2.46 5.79 6.38v.91h-9.18v.15c0 2.24 1.41 3.7 3.52 3.7 1.5 0 2.68-.71 3.04-1.85h2.46v.02h.03zm-9.01-3.86h6.56c-.06-2.01-1.33-3.35-3.21-3.35-1.85 0-3.2 1.35-3.34 3.35v.01h.01zm27.69 6.01c-1.39 1.21-3.37 1.91-5.42 1.91-3.48 0-5.84-1.97-5.84-4.84 0-1.99 1.06-3.5 3.3-4.69.29-.14.62-.33.71-.35-1.55-1.64-2.13-2.72-2.13-3.98 0-2.22 1.93-3.87 4.52-3.87 2.63 0 4.5 1.6 4.5 3.86 0 1.75-1.07 3.07-3.61 4.41l3.9 4.2c.5-.93.74-2.21.74-4.08v-.66h2.31v.73c0 2.42-.49 4.3-1.43 5.71l3.07 3.25h-3.14l-1.49-1.61.04.04.01-.02zm-2.7-11.82c0-1.23-.86-2.09-2.16-2.09-1.26 0-2.16.88-2.16 2.11 0 .89.47 1.66 1.74 2.93 1.88-.97 2.6-1.79 2.6-2.94v-.01zm20.41 13.44h-2.53l-4.63-17.18h2.78l3.18 13.45h.09l3.63-13.45h2.48l3.64 13.45h.09l3.18-13.45h2.77l-4.64 17.18h-2.51l-3.72-12.96h-.13l-3.7 12.94h.02v.02zm26.51-3.79c-.37 2.32-2.64 3.93-5.54 3.93-3.75 0-6.08-2.52-6.08-6.57 0-4.05 2.36-6.67 5.98-6.67 3.55 0 5.79 2.46 5.79 6.38v.9h-9.15v.16c0 2.23 1.41 3.71 3.53 3.71 1.51 0 2.68-.72 3.04-1.85h2.47v.02h-.01zm-9.01-3.85h6.56c-.05-2.02-1.33-3.34-3.21-3.34-1.85 0-3.2 1.35-3.34 3.34zm13.87 5.44h-.05v2.19h-2.49V708.6h2.58v7.16h.04c.79-1.45 2.26-2.28 4.09-2.28 3.26 0 5.4 2.59 5.4 6.6s-2.14 6.59-5.43 6.59c-1.88 0-3.36-.83-4.15-2.32h.03l.01.004zm.03-4.27c0 2.63 1.4 4.41 3.48 4.41 2.09 0 3.44-1.73 3.44-4.4s-1.36-4.41-3.44-4.41-3.47 1.77-3.47 4.4zm27.12 1.82h-6.57l-1.56 4.64h-2.77l6.21-17.17h2.88l6.2 17.18h-2.82l-1.56-4.65h-.02.02zm-5.87-2.15h5.19l-2.56-7.54h-.06l-2.56 7.53.01.01zm24.02.32c0 4-2.15 6.59-5.4 6.59-1.86 0-3.32-.83-4.09-2.24h-.05v6.4h-2.58v-17.17h2.49v2.14h.06c.73-1.4 2.32-2.28 4.12-2.28 3.29 0 5.46 2.59 5.46 6.59l.02-.02h.01zm-2.64 0c0-2.67-1.38-4.4-3.47-4.4-2.05 0-3.44 1.77-3.46 4.4.02 2.64 1.4 4.4 3.46 4.4 2.1-.01 3.48-1.73 3.48-4.41l.01.01zm16.83 0c0 4-2.15 6.59-5.4 6.59-1.86 0-3.32-.83-4.09-2.24h-.05v6.4h-2.57v-17.17h2.5v2.14h.06c.73-1.4 2.32-2.28 4.12-2.28 3.3 0 5.47 2.59 5.47 6.59l-.02-.02zm-2.64 0c0-2.67-1.38-4.4-3.47-4.4-2.05 0-3.44 1.77-3.45 4.4.01 2.64 1.39 4.4 3.45 4.4 2.09-.01 3.48-1.73 3.48-4.41v.01zm4.81-11.49h2.58v17.95h-2.57V708.6l-.01-.02h.01zm5.22 1.68c0-.85.68-1.49 1.51-1.49s1.51.65 1.51 1.5c0 .81-.68 1.48-1.51 1.48s-1.51-.68-1.51-1.49v.01h.01zm.21 3.34h2.58v12.93h-2.58v-12.89l-.01-.04.01.01zm13.9 4.41c-.24-1.37-1.31-2.41-3.08-2.41-2.07 0-3.45 1.74-3.45 4.46 0 2.78 1.41 4.45 3.47 4.45 1.69 0 2.79-.82 3.1-2.33H557c-.295 2.7-2.46 4.5-5.57 4.5-3.67 0-6.08-2.53-6.08-6.63 0-4.02 2.414-6.63 6.06-6.63 3.3 0 5.35 2.09 5.57 4.57h-2.49l-.01.02.025.01zm3.81 4.81c0-2.27 1.74-3.58 4.94-3.77l3.48-.2v-1c0-1.49-.99-2.29-2.71-2.29-1.41 0-2.43.72-2.66 1.83h-2.42c.08-2.29 2.24-3.97 5.15-3.97 3.15 0 5.19 1.66 5.19 4.22v8.86h-2.47v-2.16h-.06c-.71 1.4-2.32 2.29-4.07 2.29-2.58 0-4.37-1.53-4.37-3.83l.02.01v.01zm16.91-12.13v2.89h2.48v2.03h-2.47v7.22c0 1.11.5 1.63 1.59 1.63.28 0 .72-.04.88-.06v2.03c-.28.07-.89.12-1.45.12-2.57 0-3.58-.99-3.58-3.48v-7.49h-1.78v-2.01h1.79v-2.91h2.58-.03zm4.54-.43c0-.85.69-1.49 1.52-1.49s1.52.64 1.52 1.49c0 .82-.68 1.48-1.51 1.48-.84 0-1.52-.68-1.52-1.5v.02zm.22 3.33h2.58v12.93h-2.57v-12.87l-.01-.06zm4.74 6.46c0-4.07 2.4-6.64 6.13-6.64s6.11 2.55 6.11 6.63c0 4.07-2.36 6.61-6.1 6.61-3.74 0-6.11-2.55-6.11-6.62l-.01.01-.01.01zm9.61 0c0-2.82-1.29-4.5-3.48-4.5-2.18 0-3.49 1.68-3.49 4.48 0 2.82 1.31 4.48 3.51 4.48 2.19 0 3.48-1.66 3.48-4.48l-.01.01zm4.69-6.47h2.47v2.17h.05c.79-1.52 2.09-2.32 4.09-2.32 2.87 0 4.5 1.81 4.5 4.79v8.27h-2.58v-7.8c0-1.96-.9-3.06-2.79-3.06-1.95 0-3.12 1.36-3.12 3.39v7.45h-2.57V713.6l-.03-.04-.02.01zm25.71-4.25c5.12 0 8.14 3.13 8.14 8.55 0 5.42-3.01 8.61-8.12 8.61h-6.16V709.3h6.15-.01l.01.003zm-3.48 14.86h3.24c3.65 0 5.67-2.23 5.67-6.29 0-4.05-2.02-6.29-5.65-6.29h-3.24v12.57h-.01zm24.95-1.48c-.37 2.32-2.64 3.94-5.55 3.94-3.75 0-6.08-2.53-6.08-6.58s2.36-6.69 5.98-6.69c3.55 0 5.78 2.46 5.78 6.38v.9h-9.15v.15c0 2.23 1.4 3.71 3.53 3.71 1.5 0 2.69-.72 3.04-1.85h2.47l-.01.02zm-9.01-3.85h6.56c-.05-2.02-1.32-3.35-3.21-3.35-1.85 0-3.19 1.35-3.34 3.34h-.01zm17.48 7.64h-2.75l-4.66-12.93h2.73l3.3 10.38h.06l3.32-10.38h2.68l-4.65 12.93h-.02.01zm16.89-3.79c-.36 2.32-2.64 3.93-5.55 3.93-3.75 0-6.08-2.52-6.08-6.57 0-4.05 2.37-6.68 5.98-6.68 3.55 0 5.79 2.46 5.79 6.37v.91h-9.17v.16c0 2.24 1.4 3.71 3.53 3.71 1.51 0 2.68-.71 3.04-1.85h2.46l-.01.01h.02zm-9.01-3.86h6.56c-.06-2.01-1.33-3.34-3.21-3.34-1.85 0-3.2 1.36-3.35 3.34h-.01.01zm11.32-10.31h2.56v17.94h-2.59v-17.94h.04zm4.75 11.48c0-4.07 2.4-6.64 6.13-6.64s6.12 2.55 6.12 6.62-2.36 6.62-6.1 6.62c-3.74-.01-6.12-2.55-6.12-6.62l-.01.01zm9.61 0c0-2.84-1.3-4.5-3.48-4.5s-3.49 1.69-3.49 4.5c0 2.82 1.32 4.47 3.51 4.47 2.19 0 3.5-1.66 3.5-4.48h-.02v.01zm16.82 0c0 3.99-2.15 6.59-5.4 6.59-1.85 0-3.32-.83-4.09-2.25h-.04v6.39h-2.58V713.6h2.49v2.14h.06c.73-1.39 2.32-2.277 4.12-2.277 3.3 0 5.47 2.587 5.47 6.596l-.03-.03H705zm-2.64 0c0-2.67-1.38-4.41-3.47-4.41-2.04 0-3.43 1.77-3.45 4.4.01 2.63 1.39 4.4 3.46 4.4 2.09-.01 3.47-1.73 3.47-4.41zm15.75 2.68c-.37 2.32-2.64 3.94-5.55 3.94-3.75 0-6.08-2.53-6.08-6.58s2.36-6.67 5.98-6.67c3.54 0 5.78 2.47 5.78 6.38v.9h-9.15v.15c0 2.24 1.41 3.71 3.53 3.71 1.51 0 2.68-.71 3.04-1.85h2.47l-.01.02zm-9.01-3.86h6.56c-.06-2.01-1.33-3.35-3.22-3.35-1.85 0-3.19 1.36-3.34 3.34zm11.21-5.29h2.46v2.18h.06c.41-1.44 1.6-2.31 3.13-2.31.38 0 .71.04.91.08v2.41c-.21-.09-.66-.16-1.17-.16-1.69 0-2.76 1.17-2.76 2.99v7.72h-2.59V713.6l-.02-.043v.01zm-323.41-65.82c0-2.42 1.98-4.22 4.36-4.22 2.42 0 4.39 1.8 4.39 4.22 0 2.41-1.97 4.24-4.38 4.24-2.39 0-4.36-1.84-4.36-4.25zm27.91 0c0-2.42 1.98-4.22 4.36-4.22 2.42 0 4.39 1.79 4.39 4.22 0 2.41-1.97 4.24-4.39 4.24-2.39 0-4.37-1.84-4.37-4.26l.01.01zm-80.01-1.92c8.23 0 13.89 5.47 13.89 13.72 0 8.23-5.86 13.72-14.3 13.72h-7.92v12.64h-8.39V645.8h16.72l.01.01zm-8.33 20.88h6.09c4.81 0 7.61-2.56 7.61-7.14 0-4.56-2.77-7.12-7.58-7.12h-6.12v14.25h.01zm26.8-22.8h7.97v16.89h.17c1.71-3.86 4.93-5.92 9.6-5.92 6.77 0 10.69 4.38 10.69 11.46v19.54h-8.11V668c0-4.01-2-6.42-5.87-6.42-4 0-6.36 2.81-6.36 6.92v17.35h-8.11v-42 .01l.01.01zm33.94 11.41h8.11v30.58h-8.11V655.3zm13.95-11.4h8.1v42h-8.11v-42 .01zm13.94 11.41h8.11v30.58h-8.11V655.3v.02zm43.96 15.28c0 9.72-4.78 15.67-12.45 15.67-4.42 0-7.84-2.03-9.5-5.5h-.18v15.14h-8.11V655.3h8v5.22h.16c1.61-3.45 5.19-5.59 9.49-5.59 7.75 0 12.55 5.91 12.55 15.63l.03.003h.01zm-8.31 0c0-5.49-2.75-9.08-6.95-9.08-4.14 0-6.89 3.64-6.89 9.11 0 5.5 2.75 9.07 6.88 9.07 4.19 0 6.94-3.55 6.94-9.11v.01l.01.01zm25.43 15.3V645.8h17.69c7.52 0 12.24 3.85 12.24 9.99 0 4.39-3.28 8.06-7.53 8.69v.22c5.44.41 9.44 4.38 9.44 9.69 0 7.05-5.3 11.46-13.85 11.46h-18l.01.03v.003zm8.39-23.41h6.28c4.47 0 7.03-1.97 7.03-5.36 0-3.22-2.25-5.06-6.17-5.06h-7.15v10.41l.01.01v-.01zm7.47 17.16c4.84 0 7.45-2.05 7.45-5.88 0-3.76-2.69-5.76-7.63-5.76h-7.27v11.63h7.47l-.01.01zm20.2-24.33h7.83v5.47h.17c1.02-3.78 3.66-5.84 7.28-5.84.94 0 1.78.11 2.36.31v7.16c-.7-.29-1.81-.48-3.01-.48-4.11 0-6.53 2.55-6.53 6.82v17.11h-8.11V655.3h.02v.01zm18.97 15.27c0-9.78 5.89-15.8 15.08-15.8 9.22 0 15.08 6 15.08 15.8 0 9.91-5.8 15.82-15.08 15.82s-15.08-5.95-15.08-15.83h.01v.01zm21.91 0c0-6.03-2.58-9.59-6.83-9.59-4.27 0-6.86 3.58-6.86 9.57 0 6.08 2.59 9.58 6.87 9.58s6.84-3.5 6.84-9.59h-.02v.02zm11.33 6.49c0-5.56 4.25-8.7 12.05-9.17l7.64-.48v-2.02c0-2.94-2.03-4.56-5.37-4.56-2.95 0-5.01 1.55-5.4 3.77H576c.22-5.84 5.5-9.86 13.13-9.86 7.86 0 13 4.02 13 10.14v20.97h-7.83v-4.73h-.16c-1.67 3.18-5.45 5.07-9.36 5.07-5.89 0-10.31-3.71-10.31-9.17l.02.02v.01zm19.69-2.42v-2.24l-6.42.43c-3.39.22-5.19 1.55-5.19 3.8 0 2.24 1.92 3.66 4.86 3.66 3.75 0 6.75-2.33 6.75-5.68v.02h.01zm12.27-4.12c0-9.59 4.95-15.62 12.56-15.62 4.41 0 7.83 2.19 9.35 5.58h.17v-16.6h8.11v41.99h-8v-5.23h-.15c-1.5 3.363-5.03 5.58-9.52 5.58-7.62 0-12.53-6.06-12.53-15.695l.01.02.01-.01zm8.3.03c0 5.61 2.69 9.11 6.92 9.11 4.19 0 6.91-3.56 6.91-9.08s-2.73-9.12-6.91-9.12c-4.23 0-6.92 3.52-6.92 9.08l.01.01zm62.02 15.3h-8.61l-5.63-21.78h-.16l-5.58 21.76h-8.53l-8.16-30.58h8.16l4.72 22.83h.17l5.53-22.84h7.77l5.55 22.83h.17l4.75-22.84h8.01l-8.13 30.57v.03zm9.78-8.81c0-5.56 4.25-8.7 12.05-9.17l7.63-.47v-2.02c0-2.95-2.03-4.56-5.36-4.56-2.94 0-5 1.55-5.39 3.77h-7.41c.21-5.84 5.5-9.87 13.13-9.87 7.86 0 13 4.03 13 10.13v20.97h-7.84v-4.72h-.16c-1.67 3.19-5.44 5.08-9.36 5.08-5.89 0-10.3-3.69-10.3-9.16l.02.01.01.01zm19.69-2.42v-2.25l-6.41.43c-3.39.22-5.2 1.56-5.2 3.8s1.92 3.66 4.86 3.66c3.75 0 6.75-2.33 6.75-5.67v.03zm14.08 22.26v-6.27c.27.05 1.5.08 1.84.08 3.02 0 4.77-1.06 5.41-3.51l.28-1.17-10.72-30.77H726l6.61 23.99h.17l6.64-24h8.554l-10.58 31.19c-2.61 7.81-6.36 10.56-13.99 10.56-.31 0-2.78-.07-3.084-.12h-.02l.003.01zm-259.89 54.8h-4.54v-4.54h4.54v4.53zm32.52 0h-4.54v-4.54h4.54v4.53zm117.94 0h-4.53v-4.54h4.54v4.53z"/>
                <path fill="none" d="M318.273 632.277H757.16v73.147H318.273v-73.147zm0 73.148h439.455v30.62H318.273v-30.62zm68.044 30.62h69.746v31.187h-69.746v-31.188zm77.118 2.835h22.114v30.62h-22.12v-30.62zm33.455-2.836h106.035v31.188H496.89v-31.188zm117.377 0h49.9v30.62h-49.9v-30.62z"/>
                <path fill="#1A9FDA" d="M481.913 133l19.607 240.01v.18l13.137 173.843 176.16-154.612-15.877-167.84L481.913 133zm55.357 92.58l103.648 27.916 2.834 31.187-97.78 17.667-.674-6.51-8.028-70.26zm24.098 217.61l-6.114-67.74-2.104-16.926L649.58 330l3.812 35.77-92.296 74.06.273 3.37v-.01z"/>
                <path fill="#010101" d="M431.324 472.99l218.602-76.19-29.333-189.204-189.714 85.757.15 178.913m145.7-184.523l8.07 67.408-99.97 30.41-.7-60.06 92.6-37.75z"/>
                <path fill="#010101" d="M484.693 269.017l11.04 293.776L431.05 619.5l-.172-326.134"/>
                <path fill="#1A9FDA" d="M514.75 546.938l176.066-154.51-129.44 50.77-22.373-282.638L481.92 133"/>
              </svg>