<?xml version="1.0" encoding="iso-8859-1"?>
<!DOCTYPE svg PUBLIC "-//W3C//DTD SVG 1.1//EN" "http://www.w3.org/Graphics/SVG/1.1/DTD/svg11.dtd">
<svg  style="background-color:#eee;text-align:center;display:block;margin:0 auto;" xmlns="http://www.w3.org/2000/svg" xmlns:xlink="http://www.w3.org/1999/xlink" version="1.1" id="com.philipbroadway" x="0px" y="0px" viewBox="0 0 3577.475 6019.004" preserveAspectRatio="xMinYMin">
<g id="attributes">
 <g id="offers">
  <path d="M1032.936,4318.159c0.938,8.379,9.082,13.887,20.215,13.887c10.664,0,18.34-5.508,18.34-13.066 c0-6.562-4.629-10.488-15.586-13.184l-10.957-2.637c-15.527-3.75-22.734-11.016-22.734-22.793 c0-14.59,12.715-24.609,30.762-24.609c17.871,0,30.117,10.02,30.527,24.609h-12.773c-0.762-8.438-7.734-13.535-17.93-13.535 s-17.168,5.156-17.168,12.656c0,5.977,4.453,9.492,15.352,12.188l9.316,2.285c17.344,4.102,24.551,11.074,24.551,23.438 c0,15.82-12.598,25.723-32.637,25.723c-18.75,0-31.406-9.668-32.227-24.961H1032.936z"/>
  <path d="M1161.373,4341.714h-13.125l-13.535-47.93h-0.293l-13.418,47.93h-13.066l-17.578-63.633h12.656l11.836,50.391 h0.234l13.477-50.391h12.188l13.535,50.391h0.234l11.836-50.391h12.539L1161.373,4341.714z"/>
  <path d="M1186.334,4261.675c0-4.16,3.34-7.324,7.441-7.324s7.441,3.164,7.441,7.324c0,4.043-3.34,7.324-7.441,7.324 S1186.334,4265.718,1186.334,4261.675z M1187.389,4278.081h12.715v63.633h-12.715V4278.081z"/>
  <path d="M1217.389,4288.101h-8.789v-10.02h8.789v-5.859c0-11.895,5.391-17.109,18.281-17.109 c2.285,0,4.395,0.234,6.445,0.586v9.668c-1.289-0.293-3.047-0.469-4.746-0.469c-5.215,0-7.383,2.285-7.441,7.734v5.449h12.246 v10.02h-12.129v53.613h-12.656V4288.101z"/>
  <path d="M1269.127,4263.784v14.297h12.188v10.02h-12.188v35.566c0,5.508,2.461,8.086,7.793,8.086 c1.348,0,3.516-0.176,4.336-0.293v10.02c-1.406,0.352-4.395,0.645-7.148,0.645c-12.715,0-17.637-4.863-17.637-17.168v-36.855 h-8.789v-10.02h8.789v-14.297H1269.127z"/>
  <path d="M1319.858,4382.192v-147.109h16.076v147.109H1319.858z"/>
  <path d="M1535.88,4382.192v-147.109h16.076v147.109H1535.88z"/>
  <path d="M2261.953,4382.192v-147.109h16.076v147.109H2261.953z"/>
  <path d="M1385.436,4320.034c0.176,7.031,5.273,11.836,12.598,11.836c8.613,0,13.301-5.156,13.301-14.824v-59.883h13.125 v59.941c0,16.758-9.844,26.484-26.309,26.484c-15.234,0-25.605-9.492-25.605-23.555H1385.436z"/>
  <path d="M1462.545,4277.319c13.945,0,24.023,7.852,24.316,18.926h-11.953c-0.527-5.625-5.391-9.141-12.656-9.141 c-7.207,0-12.012,3.34-12.012,8.379c0,3.867,3.164,6.504,9.902,8.145l10.547,2.52c12.832,3.105,17.578,7.734,17.578,17.109 c0,11.367-10.781,19.219-26.191,19.219c-14.824,0-24.961-7.676-25.898-19.16h12.539c0.996,6.094,5.918,9.434,14.004,9.434 c7.91,0,12.891-3.281,12.891-8.438c0-4.043-2.52-6.152-9.199-7.852l-11.367-2.812c-11.484-2.812-17.168-8.672-17.168-17.461 C1437.877,4284.995,1447.896,4277.319,1462.545,4277.319z"/>
  <path d="M1660.826,4299.468c0,26.895-15.293,43.652-39.609,43.652c-24.375,0-39.609-16.758-39.609-43.652 s15.234-43.711,39.609-43.711C1645.533,4255.757,1660.826,4272.573,1660.826,4299.468z M1595.025,4299.468 c0,19.688,10.137,32.109,26.191,32.109s26.133-12.422,26.133-32.109c0-19.746-10.078-32.168-26.133-32.168 S1595.025,4279.722,1595.025,4299.468z"/>
  <path d="M1685.084,4330.933h-0.293v10.781h-12.246v-88.359h12.715v35.273h0.234 c3.867-7.148,11.133-11.191,20.156-11.191c16.055,0,26.602,12.715,26.602,32.461s-10.547,32.461-26.719,32.461 C1696.275,4342.358,1689.01,4338.257,1685.084,4330.933z M1685.201,4309.897c0,12.949,6.855,21.68,17.109,21.68 s16.934-8.496,16.934-21.68s-6.68-21.68-16.934-21.68S1685.201,4297.007,1685.201,4309.897z"/>
  <path d="M1755.572,4344.761c0,12.949-6.68,19.043-20.684,19.043c-0.527,0-2.52,0-2.812-0.059v-10.078 c0.176,0,1.582,0.059,1.816,0.059c6.562,0,8.965-2.461,8.965-8.965v-66.68h12.715V4344.761z M1741.803,4261.675 c0-4.16,3.34-7.324,7.441-7.324s7.441,3.164,7.441,7.324c0,4.043-3.34,7.324-7.441,7.324S1741.803,4265.718,1741.803,4261.675z"/>
  <path d="M1823.424,4323.081c-1.816,11.426-13.008,19.395-27.305,19.395c-18.457,0-29.941-12.422-29.941-32.344 s11.602-32.871,29.414-32.871c17.461,0,28.477,12.129,28.477,31.406v4.453h-45.059v0.762c0,11.016,6.914,18.281,17.344,18.281 c7.383,0,13.184-3.516,14.941-9.082H1823.424z M1779.068,4304.097h32.285c-0.293-9.902-6.562-16.465-15.82-16.465 C1786.393,4287.632,1779.771,4294.312,1779.068,4304.097z"/>
  <path d="M1876.509,4299.819c-1.172-6.738-6.445-11.836-15.176-11.836c-10.254,0-17.051,8.555-17.051,21.914 c0,13.711,6.914,21.914,17.109,21.914c8.262,0,13.711-4.043,15.234-11.484h12.129c-1.465,13.301-12.129,22.148-27.422,22.148 c-18.047,0-29.94-12.422-29.94-32.578c0-19.805,11.835-32.637,29.823-32.637c16.23,0,26.309,10.312,27.422,22.559H1876.509z"/>
  <path d="M1914.536,4263.784v14.297h12.188v10.02h-12.188v35.566c0,5.508,2.461,8.086,7.793,8.086 c1.348,0,3.516-0.176,4.336-0.293v10.02c-1.406,0.352-4.395,0.645-7.148,0.645c-12.715,0-17.637-4.863-17.637-17.168v-36.855 h-8.789v-10.02h8.789v-14.297H1914.536z"/>
  <path d="M1936.86,4261.675c0-4.16,3.34-7.324,7.441-7.324s7.441,3.164,7.441,7.324c0,4.043-3.34,7.324-7.441,7.324 S1936.86,4265.718,1936.86,4261.675z M1937.915,4278.081h12.715v63.633h-12.715V4278.081z"/>
  <path d="M1995.22,4341.714h-13.535l-22.969-63.633h13.418l16.23,51.094h0.293l16.289-51.094h13.184L1995.22,4341.714z"/>
  <path d="M2078.364,4323.081c-1.816,11.426-13.008,19.395-27.305,19.395c-18.457,0-29.941-12.422-29.941-32.344 s11.602-32.871,29.414-32.871c17.461,0,28.477,12.129,28.477,31.406v4.453h-45.059v0.762c0,11.016,6.914,18.281,17.344,18.281 c7.383,0,13.184-3.516,14.941-9.082H2078.364z M2034.009,4304.097h32.285c-0.293-9.902-6.562-16.465-15.82-16.465 C2041.333,4287.632,2034.712,4294.312,2034.009,4304.097z"/>
  <path d="M2089.497,4313.882v-11.426h38.438v11.426H2089.497z"/>
  <path d="M2139.478,4299.409c0-26.777,15.117-43.652,38.73-43.652c19.16,0,33.633,11.777,35.859,29.414h-13.008 c-2.344-10.84-11.367-17.93-22.852-17.93c-15.352,0-25.312,12.598-25.312,32.168c0,19.746,9.844,32.227,25.371,32.227 c11.777,0,20.156-6.035,22.793-16.23h13.066c-3.223,17.461-16.465,27.715-35.918,27.715 C2154.478,4343.12,2139.478,4326.362,2139.478,4299.409z"/>
  <path d="M2323.872,4341.714h-13.125v-84.551h33.223c17.402,0,28.242,10.078,28.242,25.84 c0,11.426-6.094,20.684-16.406,24.141l18.984,34.57h-15.176l-17.227-32.52h-18.516V4341.714z M2323.872,4298.589h18.867 c10.137,0,15.996-5.566,15.996-15.234c0-9.434-6.211-15.176-16.348-15.176h-18.516V4298.589z"/>
  <path d="M2437.837,4341.714h-12.129v-10.898h-0.234c-3.691,7.559-10.137,11.602-19.863,11.602 c-13.887,0-22.324-8.965-22.324-23.555v-40.781h12.715v38.379c0,9.785,4.629,15,13.828,15c9.492,0,15.293-6.621,15.293-16.699 v-36.68h12.715V4341.714z"/>
  <path d="M2463.911,4330.933h-0.293v10.781h-12.246v-88.359h12.715v35.273h0.234 c3.867-7.148,11.133-11.191,20.156-11.191c16.055,0,26.602,12.715,26.602,32.461s-10.547,32.461-26.719,32.461 C2475.103,4342.358,2467.837,4338.257,2463.911,4330.933z M2464.028,4309.897c0,12.949,6.855,21.68,17.109,21.68 s16.934-8.496,16.934-21.68s-6.68-21.68-16.934-21.68S2464.028,4297.007,2464.028,4309.897z"/>
  <path d="M2520.806,4364.507v-10.312c0.938,0.234,2.93,0.293,4.043,0.293c6.035,0,9.375-2.578,11.543-9.316l0.996-3.281 l-23.086-63.809h13.652l16.348,52.031h0.293l16.348-52.031h13.359l-23.848,66.562c-5.449,15.293-11.484,20.215-24.492,20.215 C2524.907,4364.858,2521.802,4364.683,2520.806,4364.507z"/>
 </g>
 <g id="jobtitle">
  <path d="M687.767,4189.712v-77.783h-0.513l-31.86,76.978h-12.158l-31.934-76.978h-0.513v77.783h-14.941v-105.688h18.97 l34.204,83.423h0.586l34.131-83.423h19.043v105.688H687.767z"/>
  <path d="M717.063,4149.941c0-24.976,14.722-40.796,37.646-40.796s37.573,15.747,37.573,40.796 s-14.575,40.723-37.573,40.723S717.063,4174.99,717.063,4149.941z M776.17,4149.941c0-17.358-7.983-27.612-21.46-27.612 s-21.533,10.327-21.533,27.612c0,17.358,8.057,27.539,21.533,27.539S776.17,4167.3,776.17,4149.941z"/>
  <path d="M821.36,4176.235h-0.366v13.477h-15.308v-110.449h15.894v44.092h0.293c4.834-8.936,13.916-13.989,25.195-13.989 c20.068,0,33.252,15.894,33.252,40.576s-13.184,40.576-33.398,40.576C835.35,4190.518,826.268,4185.391,821.36,4176.235z  M821.507,4149.941c0,16.187,8.569,27.1,21.387,27.1s21.167-10.62,21.167-27.1s-8.35-27.1-21.167-27.1 S821.507,4133.828,821.507,4149.941z"/>
  <path d="M892.259,4089.663c0-5.2,4.175-9.155,9.302-9.155s9.302,3.955,9.302,9.155c0,5.054-4.175,9.155-9.302,9.155 S892.259,4094.717,892.259,4089.663z M893.577,4110.171h15.894v79.541h-15.894V4110.171z"/>
  <path d="M926.976,4079.263h15.894v110.449h-15.894V4079.263z"/>
  <path d="M1027.757,4166.421c-2.271,14.282-16.26,24.243-34.131,24.243c-23.071,0-37.427-15.527-37.427-40.43 s14.502-41.089,36.768-41.089c21.826,0,35.596,15.161,35.596,39.258v5.566h-56.323v0.952c0,13.77,8.643,22.852,21.68,22.852 c9.229,0,16.479-4.395,18.677-11.353H1027.757z M972.312,4142.69h40.356c-0.366-12.378-8.203-20.581-19.775-20.581 C981.468,4122.109,973.191,4130.459,972.312,4142.69z"/>
  <path d="M1142.747,4179.751c-8.569,7.471-20.801,11.792-33.398,11.792c-21.46,0-35.962-12.085-35.962-29.81 c0-12.231,6.519-21.46,20.288-28.857c1.758-0.879,3.809-2.051,4.321-2.197c-9.521-10.034-13.11-16.699-13.11-24.463 c0-13.623,11.865-23.804,27.832-23.804c16.187,0,27.686,9.888,27.686,23.804c0,10.767-6.592,18.896-22.192,27.173l24.023,25.854 c3.076-5.713,4.541-13.55,4.541-25.122v-4.028h14.209v4.468c0,14.941-3.003,26.514-8.789,35.156l18.97,19.995h-19.263 L1142.747,4179.751z M1088.914,4160.562c0,10.986,8.862,18.311,21.973,18.311c8.789,0,17.798-3.442,22.852-8.862l-27.759-30.322 c-0.879,0.439-2.637,1.392-3.296,1.758C1092.869,4147.524,1088.914,4153.018,1088.914,4160.562z M1126.121,4107.021 c0-7.617-5.347-12.891-13.33-12.891c-7.764,0-13.33,5.42-13.33,12.964c0,5.493,2.856,10.254,10.693,18.018 C1121.727,4119.18,1126.121,4114.126,1126.121,4107.021z"/>
  <path d="M1251.658,4189.712h-15.527l-28.491-105.688h17.065l19.556,82.764h0.586l22.339-82.764h15.234l22.412,82.764 h0.586l19.556-82.764h17.065l-28.564,105.688h-15.454l-22.852-79.688h-0.732L1251.658,4189.712z"/>
  <path d="M1414.769,4166.421c-2.271,14.282-16.26,24.243-34.131,24.243c-23.071,0-37.427-15.527-37.427-40.43 s14.502-41.089,36.768-41.089c21.826,0,35.596,15.161,35.596,39.258v5.566h-56.323v0.952c0,13.77,8.643,22.852,21.68,22.852 c9.229,0,16.479-4.395,18.677-11.353H1414.769z M1359.324,4142.69h40.356c-0.366-12.378-8.203-20.581-19.775-20.581 C1368.479,4122.109,1360.203,4130.459,1359.324,4142.69z"/>
  <path d="M1444.651,4176.235h-0.366v13.477h-15.308v-110.449h15.894v44.092h0.293c4.834-8.936,13.916-13.989,25.195-13.989 c20.068,0,33.252,15.894,33.252,40.576s-13.184,40.576-33.398,40.576C1458.641,4190.518,1449.559,4185.391,1444.651,4176.235z  M1444.798,4149.941c0,16.187,8.569,27.1,21.387,27.1s21.167-10.62,21.167-27.1s-8.35-27.1-21.167-27.1 S1444.798,4133.828,1444.798,4149.941z"/>
  <path d="M1611.644,4161.147h-40.283l-9.668,28.564h-17.065l38.159-105.688h17.725l38.159,105.688h-17.358 L1611.644,4161.147z M1575.535,4147.964h31.934l-15.747-46.362h-0.439L1575.535,4147.964z"/>
  <path d="M1723.338,4149.941c0,24.609-13.257,40.576-33.252,40.576c-11.426,0-20.435-5.054-25.195-13.843h-0.293v39.404 h-15.894v-105.908h15.308v13.184h0.366c4.468-8.569,14.282-13.989,25.342-13.989 C1710.008,4109.365,1723.338,4125.259,1723.338,4149.941z M1707.078,4149.941c0-16.406-8.496-27.1-21.387-27.1 c-12.598,0-21.167,10.913-21.24,27.1c0.073,16.26,8.569,27.1,21.24,27.1C1698.582,4177.041,1707.078,4166.421,1707.078,4149.941z"/>
  <path d="M1810.643,4149.941c0,24.609-13.257,40.576-33.252,40.576c-11.426,0-20.435-5.054-25.195-13.843h-0.293v39.404 h-15.894v-105.908h15.308v13.184h0.366c4.468-8.569,14.282-13.989,25.342-13.989 C1797.312,4109.365,1810.643,4125.259,1810.643,4149.941z M1794.383,4149.941c0-16.406-8.496-27.1-21.387-27.1 c-12.598,0-21.167,10.913-21.24,27.1c0.073,16.26,8.569,27.1,21.24,27.1C1785.887,4177.041,1794.383,4166.421,1794.383,4149.941z"/>
  <path d="M1823.973,4079.263h15.894v110.449h-15.894V4079.263z"/>
  <path d="M1856.053,4089.663c0-5.2,4.175-9.155,9.302-9.155s9.302,3.955,9.302,9.155c0,5.054-4.175,9.155-9.302,9.155 S1856.053,4094.717,1856.053,4089.663z M1857.371,4110.171h15.894v79.541h-15.894V4110.171z"/>
  <path d="M1942.918,4137.344c-1.465-8.423-8.057-14.795-18.97-14.795c-12.817,0-21.313,10.693-21.313,27.393 c0,17.139,8.643,27.393,21.387,27.393c10.327,0,17.139-5.054,19.043-14.355h15.161c-1.831,16.626-15.161,27.686-34.277,27.686 c-22.559,0-37.427-15.527-37.427-40.723c0-24.756,14.795-40.796,37.28-40.796c20.288,0,32.886,12.891,34.277,28.198H1942.918z"/>
  <path d="M1966.355,4166.934c0-13.916,10.767-21.973,30.396-23.218l21.46-1.245v-6.152 c0-9.082-6.079-14.062-16.699-14.062c-8.643,0-14.941,4.468-16.333,11.353h-14.868c0.439-14.062,13.77-24.463,31.641-24.463 c19.409,0,31.934,10.254,31.934,26.001v54.565h-15.161v-13.257h-0.366c-4.395,8.643-14.282,14.062-25.122,14.062 C1977.342,4190.518,1966.355,4181.143,1966.355,4166.934z M2018.211,4159.829v-6.226l-19.336,1.318 c-10.84,0.659-16.479,4.688-16.479,11.719c0,6.812,5.933,11.206,15.088,11.206 C2009.275,4177.847,2018.211,4170.303,2018.211,4159.829z"/>
  <path d="M2070.433,4092.3v17.871h15.234v12.524h-15.234v44.458c0,6.885,3.076,10.107,9.741,10.107 c1.685,0,4.395-0.22,5.42-0.366v12.524c-1.758,0.439-5.493,0.806-8.936,0.806c-15.894,0-22.046-6.079-22.046-21.46v-46.069 h-10.986v-12.524h10.986V4092.3H2070.433z"/>
  <path d="M2098.338,4089.663c0-5.2,4.175-9.155,9.302-9.155s9.302,3.955,9.302,9.155c0,5.054-4.175,9.155-9.302,9.155 S2098.338,4094.717,2098.338,4089.663z M2099.656,4110.171h15.894v79.541h-15.894V4110.171z"/>
  <path d="M2128.807,4149.941c0-24.976,14.722-40.796,37.646-40.796s37.573,15.747,37.573,40.796 s-14.575,40.723-37.573,40.723S2128.807,4174.99,2128.807,4149.941z M2187.913,4149.941c0-17.358-7.983-27.612-21.46-27.612 s-21.533,10.327-21.533,27.612c0,17.358,8.057,27.539,21.533,27.539S2187.913,4167.3,2187.913,4149.941z"/>
  <path d="M2216.771,4110.171h15.161v13.403h0.293c4.834-9.375,12.817-14.282,25.122-14.282 c17.578,0,27.612,11.133,27.612,29.443v50.977h-15.894v-47.974c0-12.085-5.566-18.823-17.212-18.823 c-12.012,0-19.189,8.35-19.189,20.874v45.923h-15.894V4110.171z"/>
  <path d="M2374.9,4084.023c31.494,0,50.024,19.336,50.024,52.661c0,33.398-18.53,53.027-50.024,53.027h-37.866v-105.688 H2374.9z M2353.44,4175.503h19.922c22.412,0,34.863-13.696,34.863-38.672c0-24.902-12.451-38.672-34.863-38.672h-19.922V4175.503z "/>
  <path d="M2506.883,4166.421c-2.271,14.282-16.26,24.243-34.131,24.243c-23.071,0-37.427-15.527-37.427-40.43 s14.502-41.089,36.768-41.089c21.826,0,35.596,15.161,35.596,39.258v5.566h-56.323v0.952c0,13.77,8.643,22.852,21.68,22.852 c9.229,0,16.479-4.395,18.677-11.353H2506.883z M2451.438,4142.69h40.356c-0.366-12.378-8.203-20.581-19.775-20.581 C2460.594,4122.109,2452.317,4130.459,2451.438,4142.69z"/>
  <path d="M2558.958,4189.712h-16.919l-28.711-79.541h16.772l20.288,63.867h0.366l20.361-63.867h16.479L2558.958,4189.712z"/>
  <path d="M2662.889,4166.421c-2.271,14.282-16.26,24.243-34.131,24.243c-23.071,0-37.427-15.527-37.427-40.43 s14.502-41.089,36.768-41.089c21.826,0,35.596,15.161,35.596,39.258v5.566h-56.323v0.952c0,13.77,8.643,22.852,21.68,22.852 c9.229,0,16.479-4.395,18.677-11.353H2662.889z M2607.444,4142.69h40.356c-0.366-12.378-8.203-20.581-19.775-20.581 C2616.6,4122.109,2608.323,4130.459,2607.444,4142.69z"/>
  <path d="M2677.098,4079.263h15.894v110.449h-15.894V4079.263z"/>
  <path d="M2706.321,4149.941c0-24.976,14.722-40.796,37.646-40.796s37.573,15.747,37.573,40.796 s-14.575,40.723-37.573,40.723S2706.321,4174.99,2706.321,4149.941z M2765.428,4149.941c0-17.358-7.983-27.612-21.46-27.612 s-21.533,10.327-21.533,27.612c0,17.358,8.057,27.539,21.533,27.539S2765.428,4167.3,2765.428,4149.941z"/>
  <path d="M2868.919,4149.941c0,24.609-13.257,40.576-33.252,40.576c-11.426,0-20.435-5.054-25.195-13.843h-0.293v39.404 h-15.894v-105.908h15.308v13.184h0.366c4.468-8.569,14.282-13.989,25.342-13.989 C2855.589,4109.365,2868.919,4125.259,2868.919,4149.941z M2852.659,4149.941c0-16.406-8.496-27.1-21.387-27.1 c-12.598,0-21.167,10.913-21.24,27.1c0.073,16.26,8.569,27.1,21.24,27.1C2844.163,4177.041,2852.659,4166.421,2852.659,4149.941z"/>
  <path d="M2949.559,4166.421c-2.271,14.282-16.26,24.243-34.131,24.243c-23.071,0-37.427-15.527-37.427-40.43 s14.502-41.089,36.768-41.089c21.826,0,35.596,15.161,35.596,39.258v5.566h-56.323v0.952c0,13.77,8.643,22.852,21.68,22.852 c9.229,0,16.479-4.395,18.677-11.353H2949.559z M2894.114,4142.69h40.356c-0.366-12.378-8.203-20.581-19.775-20.581 C2903.27,4122.109,2894.993,4130.459,2894.114,4142.69z"/>
  <path d="M2963.108,4110.171h15.161v13.403h0.293c2.49-8.862,9.814-14.209,19.189-14.209c2.344,0,4.321,0.22,5.566,0.513 v14.868c-1.318-0.513-4.102-0.952-7.251-0.952c-10.474,0-17.065,7.251-17.065,18.457v47.461h-15.894V4110.171z"/>
 </g>
 <g id="name">
  <path d="M610.94,3678.905c50.586,0,85.449,33.667,85.449,84.424c0,50.586-36.06,84.424-88.013,84.424H559.67v77.759 h-51.611v-246.606H610.94z M559.67,3807.421h37.427c29.565,0,46.826-15.723,46.826-43.921c0-28.027-17.09-43.75-46.655-43.75 H559.67V3807.421z"/>
  <path d="M724.587,3667.113h49.048v103.906h1.025c10.596-23.755,30.42-36.401,59.131-36.401 c41.699,0,65.796,27.002,65.796,70.581v120.312h-49.902v-109.888c0-24.609-12.305-39.478-36.06-39.478 c-24.609,0-39.136,17.261-39.136,42.554v106.812h-49.902V3667.113z"/>
  <path d="M931.545,3690.697c0-14.868,12.134-25.977,26.831-25.977c14.868,0,27.002,11.108,27.002,25.977 s-12.134,26.147-27.002,26.147C943.679,3716.845,931.545,3705.565,931.545,3690.697z M933.425,3737.353h49.902v188.159h-49.902 V3737.353z"/>
  <path d="M1019.387,3667.113h49.902v258.398h-49.902V3667.113z"/>
  <path d="M1103.298,3690.697c0-14.868,12.134-25.977,26.831-25.977c14.868,0,27.002,11.108,27.002,25.977 s-12.134,26.147-27.002,26.147C1115.432,3716.845,1103.298,3705.565,1103.298,3690.697z M1105.178,3737.353h49.902v188.159 h-49.902V3737.353z"/>
  <path d="M1375.71,3831.347c0,59.814-29.395,96.387-76.562,96.387c-27.173,0-48.193-12.476-58.447-33.838h-1.025v93.14 h-49.902v-249.683h49.219v32.129h1.025c9.912-21.191,31.958-34.351,58.447-34.351 C1346.145,3735.131,1375.71,3771.532,1375.71,3831.347z M1324.612,3831.347c0-33.838-16.919-55.884-42.725-55.884 c-25.464,0-42.383,22.388-42.383,56.055c0,33.838,16.919,55.884,42.383,55.884 C1307.693,3887.401,1324.612,3865.526,1324.612,3831.347z"/>
  <path d="M1481.155,3925.512v-246.606h108.862c46.313,0,75.366,23.755,75.366,61.523 c0,27.002-20.166,49.561-46.313,53.491v1.367c33.496,2.563,58.105,27.002,58.105,59.644c0,43.408-32.642,70.581-85.278,70.581 H1481.155z M1532.766,3781.444h38.623c27.515,0,43.237-12.134,43.237-32.983c0-19.824-13.843-31.104-37.939-31.104h-43.921 V3781.444z M1578.738,3887.06c29.736,0,45.801-12.646,45.801-36.23c0-23.071-16.577-35.376-46.997-35.376h-44.775v71.606H1578.738 z"/>
  <path d="M1702.981,3737.353h48.193v33.667h1.025c6.323-23.242,22.559-35.889,44.775-35.889 c5.811,0,10.938,0.684,14.526,1.88v44.092c-4.272-1.709-11.108-2.905-18.457-2.905c-25.293,0-40.161,15.723-40.161,42.041v105.273 h-49.902V3737.353z"/>
  <path d="M1819.705,3831.347c0-60.156,36.23-97.241,92.798-97.241c56.738,0,92.797,36.914,92.797,97.241 c0,61.011-35.717,97.412-92.797,97.412S1819.705,3892.187,1819.705,3831.347z M1954.544,3831.347 c0-37.085-15.895-58.96-42.041-58.96c-26.318,0-42.213,22.046-42.213,58.96c0,37.427,15.895,58.96,42.213,58.96 S1954.544,3868.773,1954.544,3831.347z"/>
  <path d="M2024.271,3871.337c0-34.18,26.146-53.491,74.17-56.396l46.996-2.905v-12.476 c0-18.115-12.475-28.027-32.982-28.027c-18.115,0-30.762,9.57-33.154,23.242h-45.631c1.367-35.889,33.838-60.669,80.836-60.669 c48.363,0,79.98,24.78,79.98,62.378v129.028h-48.193v-29.053h-1.025c-10.254,19.653-33.496,31.274-57.594,31.274 C2051.442,3927.733,2024.271,3905.004,2024.271,3871.337z M2145.437,3856.469v-13.843l-39.477,2.734 c-20.85,1.367-31.959,9.57-31.959,23.413s11.793,22.559,29.908,22.559C2126.979,3891.332,2145.437,3876.977,2145.437,3856.469z"/>
  <path d="M2220.974,3831.176c0-58.96,30.42-96.045,77.246-96.045c27.174,0,48.193,13.501,57.594,34.351h1.025v-102.368 h49.902v258.398h-49.219v-32.129h-0.855c-9.229,20.679-30.932,34.351-58.617,34.351 C2251.224,3927.733,2220.974,3890.478,2220.974,3831.176z M2272.073,3831.347c0,34.521,16.576,56.055,42.553,56.055 c25.807,0,42.555-21.875,42.555-55.884s-16.748-56.055-42.555-56.055C2288.649,3775.463,2272.073,3797.167,2272.073,3831.347z"/>
  <path d="M2653.688,3925.512h-52.979l-34.691-133.984h-1.025l-34.352,133.984h-52.465l-50.244-188.159h50.244 l29.053,140.479h1.025l34.008-140.479h47.852l34.18,140.479h1.025l29.225-140.479h49.219L2653.688,3925.512z"/>
  <path d="M2713.845,3871.337c0-34.18,26.148-53.491,74.17-56.396l46.998-2.905v-12.476 c0-18.115-12.477-28.027-32.984-28.027c-18.115,0-30.762,9.57-33.154,23.242h-45.629c1.367-35.889,33.838-60.669,80.834-60.669 c48.365,0,79.98,24.78,79.98,62.378v129.028h-48.193v-29.053h-1.025c-10.254,19.653-33.496,31.274-57.592,31.274 C2741.019,3927.733,2713.845,3905.004,2713.845,3871.337z M2835.013,3856.469v-13.843l-39.479,2.734 c-20.85,1.367-31.957,9.57-31.957,23.413s11.791,22.559,29.906,22.559C2816.556,3891.332,2835.013,3876.977,2835.013,3856.469z"/>
  <path d="M2921.657,3993.529v-38.623c1.709,0.342,9.229,0.513,11.279,0.513c18.629,0,29.395-6.494,33.326-21.533 l1.709-7.178l-65.967-189.355h54.688l40.674,147.656h1.025l40.844-147.656h52.637l-65.111,191.919 c-16.064,48.022-39.137,64.941-86.133,64.941C2938.747,3994.213,2923.538,3993.871,2921.657,3993.529z"/>
 </g>
</g>
<g id="brand">
 <path style="fill:#1A9FDA;" d="M2551.425,752.897L1359.498,195.073l124.962,1516.911v1.134l80.962,1078.109   l1080.666-993.924L2551.425,752.897z M1708.025,780.206l628.928,171.005l26.837,207.021l-605.33,108.023v-42.004L1708.025,780.206z M1860.626,2155.543l-38.642-428.143l-17.266-110.282l602.453-174.018l39.795,246.787L1860.626,2155.543z"/>
 <path style="fill:#010101;" d="M2390.392,1871.641l-154.17-1195.45l0.928-9.663l-1201.25,542l1,1130.783  M1957.733,1173.074l51.004,426.042L1376.9,1791.312l-4.401-379.636L1957.733,1173.074z"/>
 <polygon style="fill:#010101;" points="1376.9,1059.312 1456.9,2867.312 1035.572,3279.284 1035.969,1208.623  "/>
 <polygon style="fill:#1A9FDA;" points="1570.4,2784.528 2638.399,1800.528 1860.675,2155.583 1692.4,354.528   1361.128,196.14  "/>
</g>
</svg>
