<?xml version="1.0" encoding="iso-8859-1"?>
<!-- Generator: Adobe Illustrator 16.0.4, SVG Export Plug-In . SVG Version: 6.00 Build 0)  -->
<!DOCTYPE svg PUBLIC "-//W3C//DTD SVG 1.1//EN" "http://www.w3.org/Graphics/SVG/1.1/DTD/svg11.dtd">
<svg version="1.1" id="Layer_1" xmlns="http://www.w3.org/2000/svg" xmlns:xlink="http://www.w3.org/1999/xlink" x="0px" y="0px"
	 width="198.715px" height="360.646px" viewBox="0 0 198.715 360.646" style="enable-background:new 0 0 198.715 360.646;"
	 xml:space="preserve">
<g id="Logo">
	<path id="b-forground" style="fill:#1A9FDA;" d="M48.446,0l23.551,297.829l126.716-111.22L187.297,65.877L48.446,0z M93.328,67.958
		l69.496,18.72l2.042,22.436l-67.317,12.159L93.328,67.958z M105.603,223.136l-4.838-61.221l68.289-20.198l2.746,25.726
		l-66.197,55.698V223.136L105.603,223.136z"/>
	<path id="p-foreground" style="fill:#FFFFFF;" d="M2.615,249.758l166.688-59.997L148.206,53.663L5.723,117.877L2.615,249.758
		 M116.649,111.317l5.809,48.489l-71.916,21.873l-0.5-43.205l66.61-27.154v-0.003H116.649z"/>
	<path id="p-stem_1_" style="fill:#FFFFFF;" d="M50.445,97.843l7.942,211.327L0,360.646l5.723-242.771"/>
	<g id="b-stem">
		<path style="fill:#1A9FDA;" d="M72.067,297.765l126.647-111.142l-93.112,36.518l-17.257-202.9L48.453,0"/>
	</g>
</g>
</svg>
