<?xml version="1.0" standalone="no"?>
<!DOCTYPE svg PUBLIC "-//W3C//DTD SVG 20010904//EN"
 "http://www.w3.org/TR/2001/REC-SVG-20010904/DTD/svg10.dtd">
<svg version="1.0" xmlns="http://www.w3.org/2000/svg"
 width="600.000000pt" height="600.000000pt" viewBox="0 0 600.000000 600.000000"
 preserveAspectRatio="xMidYMid meet">
<metadata>
Created by potrace 1.11, written by Peter Selinger 2001-2013
</metadata>
<g transform="translate(0.000000,600.000000) scale(0.100000,-0.100000)"
fill="#000000" stroke="none">
<path d="M2064 5928 c9 -99 14 -158 21 -258 3 -47 8 -101 10 -120 3 -19 7 -69
10 -110 5 -68 8 -105 20 -240 2 -25 7 -83 10 -130 3 -47 8 -103 10 -125 2 -22
7 -80 10 -130 4 -49 8 -101 10 -115 6 -44 19 -223 19 -278 l1 -52 -145 -66
c-80 -35 -165 -74 -190 -86 -25 -11 -85 -38 -135 -60 -49 -22 -115 -51 -145
-65 -30 -14 -74 -34 -97 -44 l-43 -18 0 -2017 0 -2017 33 34 c25 25 628 616
774 757 10 11 12 36 8 110 -3 54 -7 149 -10 212 -11 264 -16 380 -20 470 -3
52 -7 156 -10 230 -3 74 -7 167 -10 207 -4 60 -2 72 13 78 40 17 156 55 158
52 3 -3 10 -82 19 -207 4 -47 8 -105 10 -130 2 -25 7 -83 10 -130 3 -47 8
-105 10 -130 2 -25 7 -88 10 -140 4 -52 8 -115 10 -140 3 -25 7 -81 10 -125
10 -137 15 -188 17 -191 2 -1 30 23 64 54 56 53 263 244 289 267 24 22 135
124 206 190 41 39 119 111 173 160 107 98 105 96 256 235 56 52 110 102 120
110 9 8 66 61 126 116 60 56 123 114 139 129 17 15 72 66 124 114 51 47 106
97 121 111 67 61 246 227 265 245 12 11 65 60 119 109 l97 89 -5 51 c-8 81
-17 176 -31 351 -3 39 -8 84 -10 100 -2 17 -7 66 -10 110 -4 44 -8 94 -10 110
-2 17 -7 64 -10 105 -3 41 -8 89 -10 105 -2 17 -7 68 -10 115 -3 47 -8 99 -10
115 -2 17 -7 64 -10 105 -3 41 -7 91 -10 110 -2 19 -6 71 -10 115 -3 44 -8 91
-10 105 -2 14 -6 61 -10 105 -3 44 -7 94 -9 110 -2 17 -7 71 -11 120 -3 50
-12 95 -18 101 -7 6 -52 29 -102 51 -49 23 -157 73 -238 112 -82 39 -150 71
-152 71 -1 0 -73 34 -160 75 -86 41 -158 75 -160 75 -1 0 -73 34 -160 75 -86
41 -158 75 -160 75 -1 0 -58 26 -126 59 -139 65 -224 105 -319 149 -36 16
-200 94 -365 172 -165 78 -315 149 -334 157 l-33 14 6 -73z m912 -1133 c28 -8
58 -15 67 -15 36 0 13 -17 -70 -55 -49 -21 -106 -47 -127 -57 -22 -10 -41 -17
-42 -15 -1 1 -6 46 -10 99 l-7 97 69 -20 c38 -10 92 -26 120 -34z m947 -256
c20 -5 38 -16 38 -24 1 -8 2 -18 3 -22 1 -5 6 -37 10 -73 10 -82 13 -111 22
-180 15 -116 16 -113 -48 -126 -32 -6 -58 -8 -59 -5 0 3 -2 15 -5 26 -2 11 -8
58 -14 105 -6 47 -13 99 -15 115 -4 28 -9 68 -21 169 -6 43 -13 42 89 15z
m-695 -519 c-3 -35 -3 -35 -68 -47 -36 -7 -84 -15 -108 -18 -24 -3 -62 -9 -85
-15 -90 -19 -97 -20 -97 -2 0 12 36 31 133 70 72 29 150 61 172 71 39 17 40
17 48 -3 4 -11 7 -36 5 -56z m-974 -410 c12 -155 17 -214 26 -320 5 -58 12
-145 16 -195 3 -49 7 -100 9 -112 3 -20 -4 -25 -64 -43 -85 -25 -87 -25 -88 3
-1 65 -13 356 -18 452 -4 61 -8 142 -9 182 l-3 72 61 25 c34 13 62 23 62 23 1
-1 5 -40 8 -87z m1861 -157 c10 -65 19 -125 20 -133 2 -15 14 -86 21 -125 19
-101 21 -97 -53 -158 -37 -30 -69 -55 -70 -54 -1 2 -4 23 -7 49 -3 26 -8 62
-11 80 -9 65 -34 254 -41 313 -13 111 -15 105 46 125 30 10 60 18 66 19 6 1
18 -50 29 -116z m-797 -175 c-2 -6 -38 -21 -79 -34 -40 -12 -119 -36 -174 -53
-55 -17 -105 -31 -111 -31 -7 0 -14 17 -16 38 l-3 39 170 48 c93 27 177 52
185 56 11 6 17 0 23 -23 4 -16 6 -35 5 -40z m142 -751 c0 -2 -24 -21 -52 -42
-51 -38 -88 -68 -112 -90 -42 -38 -248 -195 -256 -195 -6 0 -10 15 -11 33 0
17 -2 57 -5 87 l-5 55 38 15 c21 7 43 15 48 16 6 2 87 30 180 63 189 67 175
62 175 58z"/>
</g>
</svg>
